HIERARCHY
ROOT Hips
{
	OFFSET 0.0000 0.0000 0.0000
	CHANNELS 6 Xposition Yposition Zposition Zrotation Xrotation Yrotation
	JOINT Ab
	{
		OFFSET -0.0000 8.0846 -0.0000
		CHANNELS 3 Zrotation Xrotation Yrotation
		JOINT Chest
		{
			OFFSET -0.0000 25.0068 -0.0000
			CHANNELS 3 Zrotation Xrotation Yrotation
			JOINT Neck
			{
				OFFSET -0.0000 25.0068 0.0000
				CHANNELS 3 Zrotation Xrotation Yrotation
				JOINT Head
				{
					OFFSET -0.0000 10.7556 0.0000
					CHANNELS 3 Zrotation Xrotation Yrotation
					End Site
					{
						OFFSET -0.0000 16.6222 0.0000
					}
				}
			}
			JOINT LeftCollar
			{
				OFFSET -0.0000 25.0068 0.0000
				CHANNELS 3 Zrotation Xrotation Yrotation
				JOINT LeftShoulder
				{
					OFFSET 19.5556 -0.0000 0.0000
					CHANNELS 3 Zrotation Xrotation Yrotation
					JOINT LeftElbow
					{
						OFFSET 27.1828 0.0000 0.0000
						CHANNELS 3 Zrotation Xrotation Yrotation
						JOINT LeftWrist
						{
							OFFSET 23.3157 0.0000 0.0000
							CHANNELS 3 Zrotation Xrotation Yrotation
							End Site
							{
								OFFSET 0.0000 -14.6667 0.0000
							}
						}
					}
				}
			}
			JOINT RightCollar
			{
				OFFSET -0.0000 25.0068 0.0000
				CHANNELS 3 Zrotation Xrotation Yrotation
				JOINT RightShoulder
				{
					OFFSET -19.5556 0.0000 0.0000
					CHANNELS 3 Zrotation Xrotation Yrotation
					JOINT RightElbow
					{
						OFFSET -27.1828 0.0000 0.0000
						CHANNELS 3 Zrotation Xrotation Yrotation
						JOINT RightWrist
						{
							OFFSET -23.3157 0.0000 0.0000
							CHANNELS 3 Zrotation Xrotation Yrotation
							End Site
							{
								OFFSET -0.0000 -14.6667 0.0000
							}
						}
					}
				}
			}
		}
	}
	JOINT LeftHip
	{
		OFFSET 11.7333 0.0000 0.0000
		CHANNELS 3 Zrotation Xrotation Yrotation
		JOINT LeftKnee
		{
			OFFSET -0.0000 -40.8688 0.0000
			CHANNELS 3 Zrotation Xrotation Yrotation
			JOINT LeftAnkle
			{
				OFFSET -0.0000 -44.4337 0.0000
				CHANNELS 3 Zrotation Xrotation Yrotation
				End Site
				{
					OFFSET -0.0000 -4.8889 16.6222
				}
			}
		}
	}
	JOINT RightHip
	{
		OFFSET -11.7333 0.0000 0.0000
		CHANNELS 3 Zrotation Xrotation Yrotation
		JOINT RightKnee
		{
			OFFSET -0.0000 -40.8688 0.0000
			CHANNELS 3 Zrotation Xrotation Yrotation
			JOINT RightAnkle
			{
				OFFSET -0.0000 -44.4337 0.0000
				CHANNELS 3 Zrotation Xrotation Yrotation
				End Site
				{
					OFFSET -0.0000 -4.8889 16.6222
				}
			}
		}
	}
}
MOTION
Frames: 22
Frame Time: 0.010000
1.1480 89.7795 104.7901 1.0003 350.0236 173.3199 2.7840 6.8540 3.1830 353.2213 4.0074 3.5866 1.7522 336.4725 0.3084 2.7824 10.9035 359.6434 345.0807 356.5718 25.3338 284.0478 55.5956 22.5236 42.1524 343.8940 320.0677 95.9006 358.4252 22.1890 19.8758 358.7856 353.0276 33.1515 54.1487 37.2173 323.6294 342.4199 51.5313 271.1665 346.3871 11.7125 4.0062 331.7600 356.4086 355.5238 19.5087 2.9073 348.5886 345.3972 22.8281 0.3083 351.9367 358.9156 358.1906 33.6153 4.8923 7.5038 349.4347 347.5211 
1.1065 89.5574 103.3526 1.3165 350.2547 173.7449 2.7118 7.1640 3.1094 353.4975 3.7046 3.4882 1.7316 336.6711 0.0344 2.8210 10.8267 359.3770 344.9382 356.5540 25.3092 283.4530 57.0479 22.4933 43.4396 343.5704 321.3975 95.3702 358.2600 22.3934 19.8885 358.7624 352.8599 34.4464 53.8726 35.6114 324.4045 342.6740 51.7335 271.8538 346.4537 12.5584 4.0831 332.0003 355.7571 355.3483 19.5055 3.0052 348.2074 344.8912 23.8114 0.5416 351.7848 358.9732 358.0123 35.8994 4.4649 6.0739 349.2518 347.1308 
1.0548 89.2457 101.9451 1.5658 350.6311 174.2307 2.7005 7.6369 2.9338 353.5645 3.5552 3.3113 1.7840 336.6158 359.8461 2.9541 10.7580 359.1775 344.9195 356.5785 25.4589 282.8258 58.8208 22.1557 45.1653 343.3458 323.1345 94.6815 357.9753 22.7613 19.9122 358.7275 352.7081 35.5582 53.8347 34.3466 324.8344 342.8245 51.4796 272.6480 346.2040 13.2419 4.0571 332.2043 355.2365 355.0366 20.1757 2.8825 347.8782 344.5940 24.3558 0.7096 351.6011 359.1703 357.8310 38.5372 4.3909 4.6531 348.7404 346.2238 
0.9704 88.8717 100.5556 1.5912 350.7649 174.4569 2.5899 7.7847 2.8049 353.4516 3.4941 3.1782 1.9242 336.5887 359.8020 3.1477 10.5689 359.1061 344.7990 356.5388 25.6062 282.8364 60.2640 21.2880 45.0898 344.0463 323.5337 99.1625 359.6420 25.3121 20.0042 358.6957 352.6955 36.4976 53.9023 33.1913 325.2299 343.0746 51.1471 272.7738 346.1974 13.6814 3.9322 332.1704 355.2691 354.7687 21.1780 2.5910 347.7207 344.5753 24.0043 0.7199 350.8802 359.6749 357.5691 41.5483 4.2696 3.5971 348.3857 345.6071 
0.9132 88.3855 99.1579 1.6062 350.9596 174.7260 2.3506 7.9333 2.7074 353.4745 3.5125 3.0680 2.5013 336.1266 359.7427 2.3950 10.9309 358.9479 344.6211 356.4692 25.7253 283.2413 62.1662 20.0425 48.4613 343.1872 325.9994 94.3354 358.1915 24.2129 20.1248 358.6594 352.4982 37.2729 53.8369 32.1520 325.8174 343.5260 50.8397 272.0705 346.5824 13.9495 3.7844 332.1828 355.7868 354.6650 22.5245 1.6211 346.0818 344.4090 23.1113 0.7446 350.2311 0.4141 357.5968 44.5805 3.7178 2.9707 347.6568 345.2034 
0.8641 87.8268 97.8007 1.7504 351.0453 175.0947 2.3118 7.9831 2.5059 353.5121 3.5198 2.8625 2.5103 336.2152 359.6277 2.6826 10.4946 358.8422 344.3281 356.3891 25.4166 284.0569 62.8216 18.6283 50.0920 343.3869 327.0100 93.9919 358.4527 24.8711 20.2819 358.6275 352.3053 38.2707 53.4990 30.8017 326.6413 344.0942 50.7167 271.1899 346.4432 14.4807 3.7324 332.1079 356.2464 354.7945 24.0529 0.1499 345.4507 345.0373 22.5226 0.8906 349.3947 0.9021 357.5844 47.6535 3.3586 1.8490 347.5825 344.9578 
0.7975 87.3068 96.5011 1.9698 351.6130 175.2703 2.6562 8.3119 2.2200 353.0922 3.7393 2.6322 2.6400 336.2121 359.6268 2.9927 10.2572 358.8028 344.1891 356.3607 25.4184 285.1081 63.4179 17.1946 51.0517 343.5388 327.8109 94.6122 358.6716 25.2741 20.5199 358.6172 352.2655 38.7120 53.1813 30.1007 327.4362 344.5806 50.6993 270.5843 346.7628 14.8334 3.6794 332.8900 356.5608 354.9539 25.2314 359.0661 353.9782 348.8221 21.9936 1.0207 349.3688 1.2532 357.5836 50.1977 4.0236 2.2658 347.0387 344.5765 
0.6659 86.7682 95.1338 1.8613 351.7572 175.2566 2.4153 8.3001 2.1806 352.9549 3.7544 2.5807 3.1101 336.1828 359.7216 2.9633 10.0628 358.8001 343.9433 356.2846 25.4748 286.3378 63.7187 15.7466 52.0564 343.5804 328.2371 94.5500 359.0688 25.5073 20.6359 358.6028 352.2678 39.7260 52.7389 28.8699 328.1892 345.0062 50.6210 270.6436 346.5506 15.5455 3.3728 333.1775 356.7502 354.6477 26.8309 358.3702 356.4947 348.8840 21.7394 0.8238 348.6599 1.4585 357.2235 53.1207 4.9369 2.3331 346.6883 344.3060 
0.4871 86.2200 93.5941 1.5936 351.9611 175.1505 1.9868 8.2778 2.1240 352.8591 3.8599 2.5022 3.5368 336.1620 359.7884 2.9557 9.8539 358.7818 343.6424 356.2132 25.1623 288.0135 63.0088 14.1411 52.4378 343.6708 328.1923 94.4770 359.5526 25.1048 20.7361 358.5677 352.1532 40.8578 52.2293 27.5541 329.0185 345.4699 50.5521 270.5670 346.2962 16.3871 2.8963 333.4652 356.9683 354.2514 28.5827 357.6999 357.5582 348.5182 22.2686 0.4581 347.8342 1.6625 356.6089 56.4399 5.8925 2.5713 346.4079 344.3609 
0.3408 85.7114 92.2276 1.3185 352.3286 175.2120 1.5311 8.4308 1.9382 352.8992 4.0934 2.2970 3.8033 336.2205 359.8741 3.0395 9.3806 358.8259 343.2550 356.1456 24.7838 289.7381 62.7853 12.2305 53.1321 343.5327 328.3362 94.3115 359.6741 25.0988 20.7478 358.5391 351.9797 42.1965 51.6872 26.1047 329.8281 345.9182 50.4590 270.0972 345.9105 17.1352 2.5455 333.7917 356.7863 353.5411 30.2641 357.4609 358.8663 347.9403 22.4244 0.1743 347.0312 1.8899 356.0542 59.6942 6.5708 1.1419 347.2934 344.0964 
0.2000 85.2437 90.9150 0.9148 352.6738 175.4026 0.7795 8.7138 1.8053 353.1732 4.1668 2.1050 4.1117 336.2503 359.9103 2.8756 8.9118 358.8125 342.6808 356.0427 24.2988 291.8851 62.2864 10.1046 53.6374 343.3984 328.0575 94.2561 359.7817 24.9391 20.7202 358.5116 351.7735 43.8909 50.9964 24.3665 330.6087 346.3465 50.3253 269.8400 345.6202 17.9355 2.1312 333.9184 356.7471 352.7717 32.1012 357.3468 359.3536 346.9415 23.2601 359.7900 346.0226 2.0560 355.8349 63.0888 6.7908 357.5208 349.6534 343.4609 
0.0958 84.8451 89.6085 0.4425 353.1037 175.7003 359.9603 9.1347 1.6266 353.3956 4.1768 1.8558 4.5066 336.2507 359.9100 2.6509 8.5930 358.7455 342.1406 355.9992 23.6303 293.8225 62.3659 7.8839 54.4676 343.1898 328.4744 93.8353 359.5576 24.6143 20.8120 358.4641 351.5182 45.9032 49.9662 22.3850 331.6220 346.9758 49.9877 269.6026 345.2703 18.9787 1.6606 334.2448 356.9554 352.1590 33.6520 357.8928 359.5614 346.0740 22.1871 359.3256 344.9744 2.3146 356.2729 66.5226 6.2937 359.4296 348.6982 343.9599 
-0.0055 84.5077 88.3361 359.9826 353.3412 176.1427 358.9526 9.3870 1.5220 354.0660 4.1635 1.6451 4.7893 336.3095 359.8888 2.2993 8.2572 358.7006 341.2720 355.9020 22.5610 296.2931 61.3676 5.4218 54.4102 343.1457 327.6988 93.8054 359.4202 24.2701 20.7822 358.4345 351.2169 47.9586 48.9241 20.1977 332.5018 347.5045 49.4609 269.1924 344.7856 19.9564 1.2794 334.6045 357.2217 351.4772 34.8289 357.7969 0.1491 345.1994 22.0833 358.8208 343.7380 2.3254 356.7153 69.6954 6.0831 359.7471 348.7359 343.7678 
-0.0594 84.1927 87.0071 359.5025 353.6300 176.5860 357.9511 9.4675 1.4041 354.6672 4.5809 1.4420 5.0340 336.1575 359.8965 2.1034 7.9401 358.6755 340.2840 355.8502 21.2943 299.5093 60.1491 2.1611 54.1725 342.9556 326.6264 93.9660 359.7876 23.6481 20.9123 358.3652 350.8890 49.6757 47.7145 18.2782 333.5447 348.2063 48.5603 268.2173 344.0883 20.8106 0.9873 335.2508 357.8578 350.9083 35.7310 357.3396 0.7878 344.3190 21.9575 358.3385 342.5209 2.5763 357.5251 72.6340 5.8556 358.9675 348.7804 343.2265 
-0.0941 83.9349 85.6540 359.1433 353.8291 177.0633 357.3498 9.4639 1.1009 354.9808 5.0117 1.1116 5.0152 336.0473 359.8943 2.2702 7.6738 358.6702 339.3431 355.8806 20.0880 303.2575 59.4554 358.1690 54.1971 342.5842 326.0153 94.0822 0.1449 22.9492 21.1839 358.2764 350.6109 51.2035 46.5769 16.2890 334.7080 349.0446 47.4017 266.3757 343.1983 21.7173 0.7654 336.0152 358.4944 350.4480 36.4842 356.9536 1.3174 343.3917 21.7718 358.0120 341.1812 2.9399 358.9340 75.2059 4.7603 357.7489 348.7952 342.8628 
-0.1393 83.7644 84.2850 359.0468 353.9781 177.6560 357.0666 9.3359 0.8939 355.2212 5.5256 0.8974 5.3977 336.0940 359.9721 1.9297 7.3884 358.6946 338.5587 355.9754 19.0451 307.4640 59.1497 353.6451 54.2389 342.3123 325.7855 94.6808 0.2556 22.4463 21.3642 358.2351 350.4921 53.0260 45.1141 13.9719 336.0713 349.9532 46.5451 264.3505 342.5459 22.9189 0.5893 336.9129 358.9318 350.4258 36.9600 356.3275 1.6824 342.5524 21.6117 357.8940 339.8500 3.1448 0.7584 77.3830 3.2623 357.1576 348.5279 342.3043 
-0.1617 83.6555 82.9242 359.1066 354.0869 178.2944 356.9775 9.2123 0.6918 355.4239 5.9358 0.6831 5.9186 336.2792 0.0304 1.3800 7.1375 358.6793 337.9556 356.0992 18.0995 311.9881 59.2223 348.7421 54.4686 342.1204 325.9209 94.9806 359.8735 22.2614 21.4720 358.1976 350.3614 55.0014 43.3386 11.3975 337.5752 350.8359 46.0974 262.5898 342.0867 24.2952 0.4174 337.8334 359.2416 350.8187 37.2058 355.6306 1.7293 341.8751 21.2430 357.8981 338.5208 3.3433 3.8035 79.1096 0.2453 357.4876 347.9394 341.9261 
-0.1822 83.5909 81.5982 359.2586 354.0671 178.9310 357.2472 9.3100 0.1938 355.5044 5.7304 0.1914 5.8698 336.6640 0.0439 1.3762 7.1180 358.7507 337.4922 356.2463 17.1974 315.6503 58.7063 344.7055 54.5372 342.0234 325.8220 94.8968 359.3909 22.0823 21.5758 358.1332 350.0768 56.5859 41.9593 8.8448 339.1185 351.6466 45.7962 261.0387 341.7856 25.2085 0.3154 338.6971 359.1626 351.0927 37.2377 355.2466 1.2549 341.2495 20.9706 357.9750 337.0203 3.4461 6.9054 80.4481 356.9783 358.0051 347.4072 341.7492 
-0.1768 83.5433 80.3908 359.4508 354.0906 179.4424 357.5104 9.4894 359.7519 355.6067 5.4851 359.7490 6.0066 336.8988 0.2836 1.1816 7.3593 359.0028 337.1617 356.3738 16.6386 318.5674 57.7032 341.2490 54.4792 341.9367 325.4551 94.9186 359.1542 21.6656 21.5226 358.1074 349.9553 57.9429 41.1887 6.4923 340.2618 352.1052 45.7632 260.1736 341.5938 25.4695 0.3015 339.6386 358.9073 351.3491 36.9933 354.9558 2.2079 341.0596 21.2070 358.1037 335.7787 3.6043 9.9853 81.1595 353.3987 358.2810 346.9790 341.9954 
-0.1675 83.6507 78.8501 359.7549 354.2086 180.0791 357.6553 9.7590 359.2237 356.1197 5.1936 359.1906 6.1629 337.1032 0.5065 0.8061 7.7989 359.2270 336.9622 356.5121 16.0822 321.7445 57.3481 337.2510 54.8146 341.6925 325.4632 94.7773 358.3234 21.2726 21.2595 358.0833 349.4533 59.3514 40.7019 4.1300 341.2088 352.4244 45.8792 260.6662 341.2882 25.7489 0.2843 341.0548 358.4012 351.6265 36.3888 354.7259 2.3452 340.6742 21.0645 358.4250 334.3368 3.7028 13.7315 81.7168 348.9740 356.9125 346.4969 342.0915 
-0.1289 83.7847 77.4661 0.0251 354.2650 180.7602 357.8089 9.9517 358.6108 356.6590 4.9887 358.5556 6.2720 337.2841 0.8577 0.5214 8.1639 359.5895 336.9786 356.6391 15.7620 324.5819 57.0903 333.5204 55.4332 341.4351 325.7198 94.3875 357.5396 20.8436 20.8543 358.0592 348.9318 60.2286 40.4997 2.2457 342.1412 352.7517 46.2262 261.3187 340.6692 26.3539 0.2571 342.3356 357.7256 351.8859 35.7196 354.4353 2.0650 340.2883 21.1368 358.6899 333.0536 3.6196 15.9711 81.8280 346.8941 356.4831 345.9030 341.4480 
-0.0699 83.9680 76.0873 0.3182 354.2659 181.3661 357.9919 10.1198 357.9997 357.1275 4.7399 357.9364 6.5107 337.4304 1.2867 0.1941 8.5674 359.9960 337.1400 356.7379 15.7519 328.1365 57.3946 329.2823 56.7261 341.1567 326.7899 93.5091 356.3518 20.8359 20.4194 358.0266 348.4153 60.9207 40.5062 0.5263 343.2325 353.1852 46.7417 261.8365 339.9953 27.8644 0.3212 343.6412 357.2314 352.2506 34.8992 354.0577 1.5449 340.0681 21.0126 359.0122 331.7245 3.5865 18.0801 81.6377 345.0540 355.8755 345.3080 340.6437 
